<svg width="1059" height="4020" viewBox="0 0 1059 4020" fill="none" xmlns="http://www.w3.org/2000/svg">
<path id="planepath" d="M27.9999 15C162 -4.33332 459.6 -9.39999 578 125C696.4 259.4 568 280.758 512 257C432 223.061 352.068 137.656 608 125C790 116 938 238 938 349C938 460 894 555 666 655C438 755 117.712 743.896 124.984 940C129.009 1048.56 239.703 1172.76 430 1170C604 1167.48 518 1017 362 1017C206 1017 19.9999 1135 17.9999 1271C15.9999 1407 258 1509 382 1551C506 1593 686 1641 720 1741C748.999 1826.29 714 1929 632 2005C550 2081 382 2059 382 1987C382 1915 486 1903 564 1903C642 1903 944 1913 956 2153C968 2393 674 2441 528 2469C382 2497 248 2587 248 2695C248 2803 314 2959 444 2959C528 2959 582 2917 582 2883C582 2849 522 2793 406 2797C290 2801 85.9998 2807 15.9998 3031C-54.0002 3255 222 3319 314 3343C406 3367 502 3369 582 3401C662 3433 724 3511 724 3635C724 3719.02 630 3869 544 3869C458 3869 406 3807 406 3775C406 3743 460 3695 526 3743C592 3791 630 3911 724 3963C814.413 4013.02 954 4029 1058 4005" stroke="black" stroke-width="8" stroke-dasharray="20 20"/>
</svg>
